<svg xmlns="http://www.w3.org/2000/svg" version="1.2" width="586.24133mm" height="21.159834mm" viewBox="0 0 266.88291 9.6328874" id="svg4447" xmlns:sodipodi-0.dtd="http://sodipodi.sourceforge.net/DTD/sodipodi-0.dtd" sodipodi-0.dtd:docname="measuretypes-inkscape.svg" xmlns:inkscape="http://www.inkscape.org/namespaces/inkscape" inkscape:version="1.1.1 (3bf5ae0d25, 2021-09-20)" xmlns:_xmlns="xmlns" _xmlns:inkscape="http://www.inkscape.org/namespaces/inkscape" _xmlns:sodipodi="http://sodipodi.sourceforge.net/DTD/sodipodi-0.dtd" _xmlns:xlink="http://www.w3.org/1999/xlink" _xmlns:svg="http://www.w3.org/2000/svg">                                                                                                                                
  <defs id="defs4451"></defs>
  <namedview xmlns="http://sodipodi.sourceforge.net/DTD/sodipodi-0.dtd" id="namedview4449" pagecolor="#ffffff" bordercolor="#666666" borderopacity="1.0" inkscape:pageshadow="2" inkscape:pageopacity="0.0" inkscape:pagecheckerboard="0" inkscape:document-units="mm" showgrid="false" lock-margins="true" fit-margin-top="1" fit-margin-left="1" fit-margin-right="1" fit-margin-bottom="1" inkscape:zoom="1.4351" inkscape:cx="186.39816" inkscape:cy="118.11024" inkscape:window-width="1920" inkscape:window-height="1016" inkscape:window-x="0" inkscape:window-y="27" inkscape:window-maximized="1" inkscape:current-layer="svg4447"></namedview>
  <style type="text/css" id="style3843">tspan { white-space: pre; }</style>
  <g id="g3869" transform="translate(-4.097106,-5.097156)">                          
    <g transform="translate(190.1435,10.2348)" id="g3847">          
      <path transform="scale(0.004,-0.004)" d="M 0,0 C 0,32 25,57 57,57 89,57 114,32 114,0 114,-32 89,-57 57,-57 25,-57 0,-32 0,0 Z" fill="currentColor" id="path3845"></path>
    </g>
    <g transform="translate(190.1435,11.2348)" id="g3851">          
      <path transform="scale(0.004,-0.004)" d="M 0,0 C 0,32 25,57 57,57 89,57 114,32 114,0 114,-32 89,-57 57,-57 25,-57 0,-32 0,0 Z" fill="currentColor" id="path3849"></path>
    </g>
    <g transform="translate(192.0681,10.2348)" id="g3855">          
      <path transform="scale(0.004,-0.004)" d="M 0,0 C 0,32 25,57 57,57 89,57 114,32 114,0 114,-32 89,-57 57,-57 25,-57 0,-32 0,0 Z" fill="currentColor" id="path3853"></path>
    </g>
    <g transform="translate(192.0681,11.2348)" id="g3859">          
      <path transform="scale(0.004,-0.004)" d="M 0,0 C 0,32 25,57 57,57 89,57 114,32 114,0 114,-32 89,-57 57,-57 25,-57 0,-32 0,0 Z" fill="currentColor" id="path3857"></path>
    </g>
    <g transform="translate(191.2864,10.7348)" id="g3863">          
      <rect x="0" y="-2.0434" width="0.52109998" height="4.0869002" ry="0.0000" fill="currentColor" id="rect3861"></rect>
    </g>
    <g transform="translate(190.8608,10.7348)" id="g3867">          
      <rect x="0" y="-2.0434" width="0.16500001" height="4.0869002" ry="0.0000" fill="currentColor" id="rect3865"></rect>
    </g>
  </g>
  <g id="g3887" transform="translate(-4.097106,-5.097156)">                  
    <g transform="translate(257.0291,10.2348)" id="g3873">          
      <path transform="scale(0.004,-0.004)" d="M 0,0 C 0,32 25,57 57,57 89,57 114,32 114,0 114,-32 89,-57 57,-57 25,-57 0,-32 0,0 Z" fill="currentColor" id="path3871"></path>
    </g>
    <g transform="translate(257.0291,11.2348)" id="g3877">          
      <path transform="scale(0.004,-0.004)" d="M 0,0 C 0,32 25,57 57,57 89,57 114,32 114,0 114,-32 89,-57 57,-57 25,-57 0,-32 0,0 Z" fill="currentColor" id="path3875"></path>
    </g>
    <g transform="translate(258.1721,10.7348)" id="g3881">          
      <rect x="0" y="-2.0434" width="0.52109998" height="4.0869002" ry="0.0000" fill="currentColor" id="rect3879"></rect>
    </g>
    <g transform="translate(257.7465,10.7348)" id="g3885">          
      <rect x="0" y="-2.0434" width="0.16500001" height="4.0869002" ry="0.0000" fill="currentColor" id="rect3883"></rect>
    </g>
  </g>
  <g id="g3893" transform="translate(-4.097106,-5.097156)">      
    <g transform="translate(22.2508,10.7348)" id="g3891">          
      <rect x="0" y="-2.0434" width="0.16500001" height="4.0869002" ry="0.0000" fill="currentColor" id="rect3889"></rect>
    </g>
  </g>
  <g id="g3921" transform="translate(-4.097106,-5.097156)">                  
    <g transform="translate(244.4802,10.2348)" id="g3897">          
      <path transform="scale(0.004,-0.004)" d="M 0,0 C 0,32 25,57 57,57 89,57 114,32 114,0 114,-32 89,-57 57,-57 25,-57 0,-32 0,0 Z" fill="currentColor" id="path3895"></path>
    </g>
    <g transform="translate(244.4802,11.2348)" id="g3901">          
      <path transform="scale(0.004,-0.004)" d="M 0,0 C 0,32 25,57 57,57 89,57 114,32 114,0 114,-32 89,-57 57,-57 25,-57 0,-32 0,0 Z" fill="currentColor" id="path3899"></path>
    </g>
    <g transform="scale(-1,1)" id="g3915">                      
      <g transform="translate(-246.1443,10.7348)" id="g3905">              
        <rect x="0" y="-2.0434" width="0.52109998" height="4.0869002" ry="0.0000" fill="currentColor" id="rect3903"></rect>
      </g>
      <g transform="translate(-246.1443,8.6914)" id="g3909">              
        <path transform="scale(0.004,-0.004)" d="m 0,-56 v 91 c 0,12 10,21 22,21 h 43 c 164,0 281,136 377,272 10,14 32,-1 22,-15 C 361,168 242,-56 65,-56 Z" fill="currentColor" id="path3907"></path>
      </g>
      <g transform="translate(-246.1443,12.7783)" id="g3913">              
        <path transform="scale(0.004,-0.004)" d="m 0,56 h 65 c 177,0 296,-224 399,-369 10,-14 -12,-29 -22,-15 C 346,-192 229,-56 65,-56 H 22 c -12,0 -22,9 -22,21 z" fill="currentColor" id="path3911"></path>
      </g>
    </g>
    <g transform="translate(245.1975,10.7348)" id="g3919">          
      <rect x="0" y="-2.0434" width="0.16500001" height="4.0869002" ry="0.0000" fill="currentColor" id="rect3917"></rect>
    </g>
  </g>
  <g id="g3931" transform="translate(-4.097106,-5.097156)">          
    <g transform="translate(33.7263,10.7348)" id="g3925">          
      <rect x="0" y="-2.0434" width="0.16500001" height="4.0869002" ry="0.0000" fill="currentColor" id="rect3923"></rect>
    </g>
    <g transform="translate(33.3007,10.7348)" id="g3929">          
      <rect x="0" y="-2.0434" width="0.16500001" height="4.0869002" ry="0.0000" fill="currentColor" id="rect3927"></rect>
    </g>
  </g>
  <g id="g3983" transform="translate(-4.097106,-5.097156)">                                          
    <g transform="translate(230.0066,10.2348)" id="g3935">          
      <path transform="scale(0.004,-0.004)" d="M 0,0 C 0,32 25,57 57,57 89,57 114,32 114,0 114,-32 89,-57 57,-57 25,-57 0,-32 0,0 Z" fill="currentColor" id="path3933"></path>
    </g>
    <g transform="translate(230.0066,11.2348)" id="g3939">          
      <path transform="scale(0.004,-0.004)" d="M 0,0 C 0,32 25,57 57,57 89,57 114,32 114,0 114,-32 89,-57 57,-57 25,-57 0,-32 0,0 Z" fill="currentColor" id="path3937"></path>
    </g>
    <g transform="translate(233.1386,10.2348)" id="g3943">          
      <path transform="scale(0.004,-0.004)" d="M 0,0 C 0,32 25,57 57,57 89,57 114,32 114,0 114,-32 89,-57 57,-57 25,-57 0,-32 0,0 Z" fill="currentColor" id="path3941"></path>
    </g>
    <g transform="translate(233.1386,11.2348)" id="g3947">          
      <path transform="scale(0.004,-0.004)" d="M 0,0 C 0,32 25,57 57,57 89,57 114,32 114,0 114,-32 89,-57 57,-57 25,-57 0,-32 0,0 Z" fill="currentColor" id="path3945"></path>
    </g>
    <g transform="translate(232.713,10.7348)" id="g3951">          
      <rect x="0" y="-2.0434" width="0.16500001" height="4.0869002" ry="0.0000" fill="currentColor" id="rect3949"></rect>
    </g>
    <g transform="translate(231.9313,10.7348)" id="g3955">          
      <rect x="0" y="-2.0434" width="0.52109998" height="4.0869002" ry="0.0000" fill="currentColor" id="rect3953"></rect>
    </g>
    <g transform="translate(231.9313,8.6914)" id="g3959">          
      <path transform="scale(0.004,-0.004)" d="m 0,-56 v 91 c 0,12 10,21 22,21 h 43 c 164,0 281,136 377,272 10,14 32,-1 22,-15 C 361,168 242,-56 65,-56 Z" fill="currentColor" id="path3957"></path>
    </g>
    <g transform="translate(231.9313,12.7783)" id="g3963">          
      <path transform="scale(0.004,-0.004)" d="m 0,56 h 65 c 177,0 296,-224 399,-369 10,-14 -12,-29 -22,-15 C 346,-192 229,-56 65,-56 H 22 c -12,0 -22,9 -22,21 z" fill="currentColor" id="path3961"></path>
    </g>
    <g transform="scale(-1,1)" id="g3977">                      
      <g transform="translate(-231.6707,10.7348)" id="g3967">              
        <rect x="0" y="-2.0434" width="0.52109998" height="4.0869002" ry="0.0000" fill="currentColor" id="rect3965"></rect>
      </g>
      <g transform="translate(-231.6707,8.6914)" id="g3971">              
        <path transform="scale(0.004,-0.004)" d="m 0,-56 v 91 c 0,12 10,21 22,21 h 43 c 164,0 281,136 377,272 10,14 32,-1 22,-15 C 361,168 242,-56 65,-56 Z" fill="currentColor" id="path3969"></path>
      </g>
      <g transform="translate(-231.6707,12.7783)" id="g3975">              
        <path transform="scale(0.004,-0.004)" d="m 0,56 h 65 c 177,0 296,-224 399,-369 10,-14 -12,-29 -22,-15 C 346,-192 229,-56 65,-56 H 22 c -12,0 -22,9 -22,21 z" fill="currentColor" id="path3973"></path>
      </g>
    </g>
    <g transform="translate(230.724,10.7348)" id="g3981">          
      <rect x="0" y="-2.0434" width="0.16500001" height="4.0869002" ry="0.0000" fill="currentColor" id="rect3979"></rect>
    </g>
  </g>
  <g id="g3989" transform="translate(-4.097106,-5.097156)">      
    <g transform="translate(44.7761,10.7348)" id="g3987">          
      <rect x="0" y="-2.0434" width="0.52109998" height="4.0869002" ry="0.0000" fill="currentColor" id="rect3985"></rect>
    </g>
  </g>
  <g id="g4015" transform="translate(-4.097106,-5.097156)">                          
    <g transform="translate(217.4577,10.7348)" id="g3993">          
      <rect x="0" y="-2.0434" width="0.52109998" height="4.0869002" ry="0.0000" fill="currentColor" id="rect3991"></rect>
    </g>
    <g transform="translate(217.4577,8.6914)" id="g3997">          
      <path transform="scale(0.004,-0.004)" d="m 0,-56 v 91 c 0,12 10,21 22,21 h 43 c 164,0 281,136 377,272 10,14 32,-1 22,-15 C 361,168 242,-56 65,-56 Z" fill="currentColor" id="path3995"></path>
    </g>
    <g transform="translate(217.4577,12.7783)" id="g4001">          
      <path transform="scale(0.004,-0.004)" d="m 0,56 h 65 c 177,0 296,-224 399,-369 10,-14 -12,-29 -22,-15 C 346,-192 229,-56 65,-56 H 22 c -12,0 -22,9 -22,21 z" fill="currentColor" id="path3999"></path>
    </g>
    <g transform="translate(218.665,10.2348)" id="g4005">          
      <path transform="scale(0.004,-0.004)" d="M 0,0 C 0,32 25,57 57,57 89,57 114,32 114,0 114,-32 89,-57 57,-57 25,-57 0,-32 0,0 Z" fill="currentColor" id="path4003"></path>
    </g>
    <g transform="translate(218.665,11.2348)" id="g4009">          
      <path transform="scale(0.004,-0.004)" d="M 0,0 C 0,32 25,57 57,57 89,57 114,32 114,0 114,-32 89,-57 57,-57 25,-57 0,-32 0,0 Z" fill="currentColor" id="path4007"></path>
    </g>
    <g transform="translate(218.2394,10.7348)" id="g4013">          
      <rect x="0" y="-2.0434" width="0.16500001" height="4.0869002" ry="0.0000" fill="currentColor" id="rect4011"></rect>
    </g>
  </g>
  <g id="g4021" transform="translate(-4.097106,-5.097156)">      
    <g transform="translate(56.1821,10.7348)" id="g4019">          
      <rect x="0" y="-2.0434" width="0.16500001" height="4.0869002" ry="0.0000" fill="currentColor" id="rect4017"></rect>
    </g>
  </g>
  <g id="g4051" transform="translate(-4.097106,-5.097156)">                              
    <g transform="translate(203.4097,10.2348)" id="g4025">          
      <path transform="scale(0.004,-0.004)" d="M 0,0 C 0,32 25,57 57,57 89,57 114,32 114,0 114,-32 89,-57 57,-57 25,-57 0,-32 0,0 Z" fill="currentColor" id="path4023"></path>
    </g>
    <g transform="translate(203.4097,11.2348)" id="g4029">          
      <path transform="scale(0.004,-0.004)" d="M 0,0 C 0,32 25,57 57,57 89,57 114,32 114,0 114,-32 89,-57 57,-57 25,-57 0,-32 0,0 Z" fill="currentColor" id="path4027"></path>
    </g>
    <g transform="translate(206.1161,10.2348)" id="g4033">          
      <path transform="scale(0.004,-0.004)" d="M 0,0 C 0,32 25,57 57,57 89,57 114,32 114,0 114,-32 89,-57 57,-57 25,-57 0,-32 0,0 Z" fill="currentColor" id="path4031"></path>
    </g>
    <g transform="translate(206.1161,11.2348)" id="g4037">          
      <path transform="scale(0.004,-0.004)" d="M 0,0 C 0,32 25,57 57,57 89,57 114,32 114,0 114,-32 89,-57 57,-57 25,-57 0,-32 0,0 Z" fill="currentColor" id="path4035"></path>
    </g>
    <g transform="translate(205.3344,10.7348)" id="g4041">          
      <rect x="0" y="-2.0434" width="0.52109998" height="4.0869002" ry="0.0000" fill="currentColor" id="rect4039"></rect>
    </g>
    <g transform="translate(204.9088,10.7348)" id="g4045">          
      <rect x="0" y="-2.0434" width="0.16500001" height="4.0869002" ry="0.0000" fill="currentColor" id="rect4043"></rect>
    </g>
    <g transform="translate(204.1271,10.7348)" id="g4049">          
      <rect x="0" y="-2.0434" width="0.52109998" height="4.0869002" ry="0.0000" fill="currentColor" id="rect4047"></rect>
    </g>
  </g>
  <g id="g4069" transform="translate(-4.097106,-5.097156)">                  
    <g transform="translate(67.232,10.2348)" id="g4055">          
      <path transform="scale(0.004,-0.004)" d="M 0,0 C 0,32 25,57 57,57 89,57 114,32 114,0 114,-32 89,-57 57,-57 25,-57 0,-32 0,0 Z" fill="currentColor" id="path4053"></path>
    </g>
    <g transform="translate(67.232,11.2348)" id="g4059">          
      <path transform="scale(0.004,-0.004)" d="M 0,0 C 0,32 25,57 57,57 89,57 114,32 114,0 114,-32 89,-57 57,-57 25,-57 0,-32 0,0 Z" fill="currentColor" id="path4057"></path>
    </g>
    <g transform="translate(68.3749,10.7348)" id="g4063">          
      <rect x="0" y="-2.0434" width="0.52109998" height="4.0869002" ry="0.0000" fill="currentColor" id="rect4061"></rect>
    </g>
    <g transform="translate(67.9493,10.7348)" id="g4067">          
      <rect x="0" y="-2.0434" width="0.16500001" height="4.0869002" ry="0.0000" fill="currentColor" id="rect4065"></rect>
    </g>
  </g>
  <g id="g4091" transform="translate(-4.097106,-5.097156)">                      
    <g transform="translate(4.5524,12.7348)" id="g4073">          
      <line stroke-linejoin="round" stroke-linecap="round" stroke-width="0.0869" stroke="currentColor" x1="0.043400001" y1="0" x2="265.92889" y2="0" id="line4071"></line>
    </g>
    <g transform="translate(4.5524,11.7348)" id="g4077">          
      <line stroke-linejoin="round" stroke-linecap="round" stroke-width="0.0869" stroke="currentColor" x1="0.043400001" y1="0" x2="265.92889" y2="0" id="line4075"></line>
    </g>
    <g transform="translate(4.5524,10.7348)" id="g4081">          
      <line stroke-linejoin="round" stroke-linecap="round" stroke-width="0.0869" stroke="currentColor" x1="0.043400001" y1="0" x2="265.92889" y2="0" id="line4079"></line>
    </g>
    <g transform="translate(4.5524,9.7348)" id="g4085">          
      <line stroke-linejoin="round" stroke-linecap="round" stroke-width="0.0869" stroke="currentColor" x1="0.043400001" y1="0" x2="265.92889" y2="0" id="line4083"></line>
    </g>
    <g transform="translate(4.5524,8.7348)" id="g4089">          
      <line stroke-linejoin="round" stroke-linecap="round" stroke-width="0.0869" stroke="currentColor" x1="0.043400001" y1="0" x2="265.92889" y2="0" id="line4087"></line>
    </g>
  </g>
  <g id="g4101" transform="translate(-4.097106,-5.097156)">          
    <g transform="translate(80.5626,10.7348)" id="g4095">          
      <rect x="0" y="-2.0434" width="0.16500001" height="4.0869002" ry="0.0000" fill="currentColor" id="rect4093"></rect>
    </g>
    <g transform="translate(79.7809,10.7348)" id="g4099">          
      <rect x="0" y="-2.0434" width="0.52109998" height="4.0869002" ry="0.0000" fill="currentColor" id="rect4097"></rect>
    </g>
  </g>
  <g id="g4131" transform="translate(-4.097106,-5.097156)">                              
    <g transform="translate(176.4516,10.2348)" id="g4105">          
      <path transform="scale(0.004,-0.004)" d="M 0,0 C 0,32 25,57 57,57 89,57 114,32 114,0 114,-32 89,-57 57,-57 25,-57 0,-32 0,0 Z" fill="currentColor" id="path4103"></path>
    </g>
    <g transform="translate(176.4516,11.2348)" id="g4109">          
      <path transform="scale(0.004,-0.004)" d="M 0,0 C 0,32 25,57 57,57 89,57 114,32 114,0 114,-32 89,-57 57,-57 25,-57 0,-32 0,0 Z" fill="currentColor" id="path4107"></path>
    </g>
    <g transform="translate(178.8019,10.2348)" id="g4113">          
      <path transform="scale(0.004,-0.004)" d="M 0,0 C 0,32 25,57 57,57 89,57 114,32 114,0 114,-32 89,-57 57,-57 25,-57 0,-32 0,0 Z" fill="currentColor" id="path4111"></path>
    </g>
    <g transform="translate(178.8019,11.2348)" id="g4117">          
      <path transform="scale(0.004,-0.004)" d="M 0,0 C 0,32 25,57 57,57 89,57 114,32 114,0 114,-32 89,-57 57,-57 25,-57 0,-32 0,0 Z" fill="currentColor" id="path4115"></path>
    </g>
    <g transform="translate(178.3763,10.7348)" id="g4121">          
      <rect x="0" y="-2.0434" width="0.16500001" height="4.0869002" ry="0.0000" fill="currentColor" id="rect4119"></rect>
    </g>
    <g transform="translate(177.5946,10.7348)" id="g4125">          
      <rect x="0" y="-2.0434" width="0.52109998" height="4.0869002" ry="0.0000" fill="currentColor" id="rect4123"></rect>
    </g>
    <g transform="translate(177.169,10.7348)" id="g4129">          
      <rect x="0" y="-2.0434" width="0.16500001" height="4.0869002" ry="0.0000" fill="currentColor" id="rect4127"></rect>
    </g>
  </g>
  <g id="g4141" transform="translate(-4.097106,-5.097156)">          
    <g transform="translate(92.3942,10.7348)" id="g4135">          
      <rect x="0" y="-2.0434" width="0.52109998" height="4.0869002" ry="0.0000" fill="currentColor" id="rect4133"></rect>
    </g>
    <g transform="translate(91.6124,10.7348)" id="g4139">          
      <rect x="0" y="-2.0434" width="0.52109998" height="4.0869002" ry="0.0000" fill="currentColor" id="rect4137"></rect>
    </g>
  </g>
  <g id="g4167" transform="translate(-4.097106,-5.097156)">                          
    <g transform="translate(162.8292,10.2348)" id="g4145">          
      <path transform="scale(0.004,-0.004)" d="M 0,0 C 0,32 25,57 57,57 89,57 114,32 114,0 114,-32 89,-57 57,-57 25,-57 0,-32 0,0 Z" fill="currentColor" id="path4143"></path>
    </g>
    <g transform="translate(162.8292,11.2348)" id="g4149">          
      <path transform="scale(0.004,-0.004)" d="M 0,0 C 0,32 25,57 57,57 89,57 114,32 114,0 114,-32 89,-57 57,-57 25,-57 0,-32 0,0 Z" fill="currentColor" id="path4147"></path>
    </g>
    <g transform="translate(165.11,10.2348)" id="g4153">          
      <path transform="scale(0.004,-0.004)" d="M 0,0 C 0,32 25,57 57,57 89,57 114,32 114,0 114,-32 89,-57 57,-57 25,-57 0,-32 0,0 Z" fill="currentColor" id="path4151"></path>
    </g>
    <g transform="translate(165.11,11.2348)" id="g4157">          
      <path transform="scale(0.004,-0.004)" d="M 0,0 C 0,32 25,57 57,57 89,57 114,32 114,0 114,-32 89,-57 57,-57 25,-57 0,-32 0,0 Z" fill="currentColor" id="path4155"></path>
    </g>
    <g transform="translate(164.3283,10.7348)" id="g4161">          
      <rect x="0" y="-2.0434" width="0.52109998" height="4.0869002" ry="0.0000" fill="currentColor" id="rect4159"></rect>
    </g>
    <g transform="translate(163.5466,10.7348)" id="g4165">          
      <rect x="0" y="-2.0434" width="0.52109998" height="4.0869002" ry="0.0000" fill="currentColor" id="rect4163"></rect>
    </g>
  </g>
  <g id="g4181" transform="translate(-4.097106,-5.097156)">              
    <g transform="translate(105.0074,10.7348)" id="g4171">          
      <rect x="0" y="-2.0434" width="0.16500001" height="4.0869002" ry="0.0000" fill="currentColor" id="rect4169"></rect>
    </g>
    <g transform="translate(104.2257,10.7348)" id="g4175">          
      <rect x="0" y="-2.0434" width="0.52109998" height="4.0869002" ry="0.0000" fill="currentColor" id="rect4173"></rect>
    </g>
    <g transform="translate(103.8001,10.7348)" id="g4179">          
      <rect x="0" y="-2.0434" width="0.16500001" height="4.0869002" ry="0.0000" fill="currentColor" id="rect4177"></rect>
    </g>
  </g>
  <g id="g4199" transform="translate(-4.097106,-5.097156)">                  
    <g transform="translate(151.4876,10.2348)" id="g4185">          
      <path transform="scale(0.004,-0.004)" d="M 0,0 C 0,32 25,57 57,57 89,57 114,32 114,0 114,-32 89,-57 57,-57 25,-57 0,-32 0,0 Z" fill="currentColor" id="path4183"></path>
    </g>
    <g transform="translate(151.4876,11.2348)" id="g4189">          
      <path transform="scale(0.004,-0.004)" d="M 0,0 C 0,32 25,57 57,57 89,57 114,32 114,0 114,-32 89,-57 57,-57 25,-57 0,-32 0,0 Z" fill="currentColor" id="path4187"></path>
    </g>
    <g transform="translate(151.062,10.7348)" id="g4193">          
      <rect x="0" y="-2.0434" width="0.16500001" height="4.0869002" ry="0.0000" fill="currentColor" id="rect4191"></rect>
    </g>
    <g transform="translate(150.2803,10.7348)" id="g4197">          
      <rect x="0" y="-2.0434" width="0.52109998" height="4.0869002" ry="0.0000" fill="currentColor" id="rect4195"></rect>
    </g>
  </g>
  <g id="g4209" transform="translate(-4.097106,-5.097156)">          
    <g transform="translate(116.4829,10.7348)" id="g4203">          
      <rect x="0" y="-2.0434" width="0.52109998" height="4.0869002" ry="0.0000" fill="currentColor" id="rect4201"></rect>
    </g>
    <g transform="translate(116.0573,10.7348)" id="g4207">          
      <rect x="0" y="-2.0434" width="0.16500001" height="4.0869002" ry="0.0000" fill="currentColor" id="rect4205"></rect>
    </g>
  </g>
  <g id="g4231" transform="translate(-4.097106,-5.097156)">                      
    <g transform="translate(139.2305,10.7348)" id="g4213">          
      <rect x="0" y="-2.0434" width="0.16500001" height="0.3434" ry="0.032000002" fill="currentColor" id="rect4211"></rect>
    </g>
    <g transform="translate(139.2305,10.7348)" id="g4217">          
      <rect x="0" y="-1.3" width="0.16500001" height="0.60000002" ry="0.032000002" fill="currentColor" id="rect4215"></rect>
    </g>
    <g transform="translate(139.2305,10.7348)" id="g4221">          
      <rect x="0" y="-0.30000001" width="0.16500001" height="0.60000002" ry="0.032000002" fill="currentColor" id="rect4219"></rect>
    </g>
    <g transform="translate(139.2305,10.7348)" id="g4225">          
      <rect x="0" y="0.69999999" width="0.16500001" height="0.60000002" ry="0.032000002" fill="currentColor" id="rect4223"></rect>
    </g>
    <g transform="translate(139.2305,10.7348)" id="g4229">          
      <rect x="0" y="1.7" width="0.16500001" height="0.3434" ry="0.032000002" fill="currentColor" id="rect4227"></rect>
    </g>
  </g>
  <g id="g4249" transform="translate(-4.097106,-5.097156)">                  
    <g transform="translate(127.8889,12.2348)" id="g4235">          
      <path transform="scale(0.004,-0.004)" d="M 0,0 C 0,32 25,57 57,57 89,57 114,32 114,0 114,-32 89,-57 57,-57 25,-57 0,-32 0,0 Z" fill="currentColor" id="path4233"></path>
    </g>
    <g transform="translate(127.8889,11.2348)" id="g4239">          
      <path transform="scale(0.004,-0.004)" d="M 0,0 C 0,32 25,57 57,57 89,57 114,32 114,0 114,-32 89,-57 57,-57 25,-57 0,-32 0,0 Z" fill="currentColor" id="path4237"></path>
    </g>
    <g transform="translate(127.8889,10.2348)" id="g4243">          
      <path transform="scale(0.004,-0.004)" d="M 0,0 C 0,32 25,57 57,57 89,57 114,32 114,0 114,-32 89,-57 57,-57 25,-57 0,-32 0,0 Z" fill="currentColor" id="path4241"></path>
    </g>
    <g transform="translate(127.8889,9.2348)" id="g4247">          
      <path transform="scale(0.004,-0.004)" d="M 0,0 C 0,32 25,57 57,57 89,57 114,32 114,0 114,-32 89,-57 57,-57 25,-57 0,-32 0,0 Z" fill="currentColor" id="path4245"></path>
    </g>
  </g>
  <g transform="translate(0.45529404,2.637644)" id="g4253">      
    <rect x="176.10899" y="-0.093400002" width="2.9830999" height="0.1869" ry="0.093400002" fill="currentColor" id="rect4251"></rect>
  </g>
  <g transform="translate(0.45529404,8.637644)" id="g4257">      
    <rect x="8.2164001" y="-0.093400002" width="2.9830999" height="0.1869" ry="0.093400002" fill="currentColor" id="rect4255"></rect>
  </g>
  <g id="g4267" transform="translate(-4.097106,-5.097156)">          
    <g transform="translate(270.0036,10.7348)" id="g4261">          
      <rect x="0" y="-2.0434" width="0.52109998" height="4.0869002" ry="0.0000" fill="currentColor" id="rect4259"></rect>
    </g>
    <g transform="translate(269.578,10.7348)" id="g4265">          
      <rect x="0" y="-2.0434" width="0.16500001" height="4.0869002" ry="0.0000" fill="currentColor" id="rect4263"></rect>
    </g>
  </g>
  <a style="color:inherit" xmlns:xlink="http://www.w3.org/1999/xlink" xlink:href="textedit:///home/jonathon/Dropbox/dev/obsmusic-process/testSVG/measuretypes.ly:25:2:3" id="a4273" transform="translate(-4.097106,-5.097156)">      
    <g transform="translate(181.1587,7.7348)" id="g4271">          
      <path transform="scale(0.004,-0.004)" d="m 215,114 c -50,0 -71,-42 -71,-88 0,-79 60,-140 139,-140 50,0 70,42 70,88 0,79 -59,140 -138,140 z M 497,0 c 0,-43 -35,-74 -73,-95 -54,-29 -114,-40 -175,-40 -61,0 -122,11 -176,40 -38,21 -73,52 -73,95 0,43 35,74 73,95 54,29 115,40 176,40 61,0 121,-11 175,-40 38,-21 73,-52 73,-95 z" fill="currentColor" id="path4269"></path>
    </g>
  </a>
  <a style="color:inherit" xmlns:xlink="http://www.w3.org/1999/xlink" xlink:href="textedit:///home/jonathon/Dropbox/dev/obsmusic-process/testSVG/measuretypes.ly:26:2:3" id="a4279" transform="translate(-4.097106,-5.097156)">      
    <g transform="translate(194.4249,8.2348)" id="g4277">          
      <path transform="scale(0.004,-0.004)" d="m 215,114 c -50,0 -71,-42 -71,-88 0,-79 60,-140 139,-140 50,0 70,42 70,88 0,79 -59,140 -138,140 z M 497,0 c 0,-43 -35,-74 -73,-95 -54,-29 -114,-40 -175,-40 -61,0 -122,11 -176,40 -38,21 -73,52 -73,95 0,43 35,74 73,95 54,29 115,40 176,40 61,0 121,-11 175,-40 38,-21 73,-52 73,-95 z" fill="currentColor" id="path4275"></path>
    </g>
  </a>
  <a style="color:inherit" xmlns:xlink="http://www.w3.org/1999/xlink" xlink:href="textedit:///home/jonathon/Dropbox/dev/obsmusic-process/testSVG/measuretypes.ly:22:2:3" id="a4285" transform="translate(-4.097106,-5.097156)">      
    <g transform="translate(141.2955,9.2348)" id="g4283">          
      <path transform="scale(0.004,-0.004)" d="m 215,114 c -50,0 -71,-42 -71,-88 0,-79 60,-140 139,-140 50,0 70,42 70,88 0,79 -59,140 -138,140 z M 497,0 c 0,-43 -35,-74 -73,-95 -54,-29 -114,-40 -175,-40 -61,0 -122,11 -176,40 -38,21 -73,52 -73,95 0,43 35,74 73,95 54,29 115,40 176,40 61,0 121,-11 175,-40 38,-21 73,-52 73,-95 z" fill="currentColor" id="path4281"></path>
    </g>
  </a>
  <g transform="translate(42.061194,2.330044)" id="g4293">      
    <g id="g4291">                
      <path transform="scale(0.0025,-0.0025)" d="m 184,487 c 20,0 61,31 61,-5 V 123 c 0,-50 30,-97 77,-97 9,0 13,-7 13,-13 C 335,7 331,0 322,0 276,0 230,13 184,13 138,13 92,0 46,0 37,0 33,7 33,13 c 0,6 4,13 13,13 47,0 77,47 77,97 v 231 c 0,13 -10,20 -18,20 -5,0 -9,-2 -11,-6 L 29,236 c -3,-6 -9,-9 -14,-9 -8,0 -17,6 -17,15 0,2 1,5 2,8 l 123,250 c 3,6 11,3 18,0 14,-6 28,-13 43,-13 z" fill="currentColor" id="path4287"></path>
      <path transform="matrix(0.0025,0,0,-0.0025,0.8468,0)" d="m 0,56 c 0,31 25,56 56,56 31,0 56,-25 56,-56 C 112,25 87,0 56,0 25,0 0,25 0,56 Z" fill="currentColor" id="path4289"></path>
    </g>
  </g>
  <g transform="translate(40.678994,0.52474404)" id="g4297">      
    <line stroke-linejoin="round" stroke-linecap="round" stroke-width="0.139" stroke="currentColor" x1="23.242701" y1="0" x2="23.242701" y2="2" id="line4295"></line>
  </g>
  <g transform="translate(40.678994,0.52474404)" id="g4301">      
    <line stroke-linejoin="round" stroke-linecap="round" stroke-width="0.139" stroke="currentColor" x1="0.4517" y1="0" x2="0.4517" y2="2" id="line4299"></line>
  </g>
  <g transform="translate(40.678994,0.52474404)" id="g4305">      
    <line stroke-linejoin="round" stroke-linecap="round" stroke-width="0.139" stroke="currentColor" x1="0.4517" y1="0" x2="23.242701" y2="0" id="line4303"></line>
  </g>
  <g transform="translate(65.659994,2.284744)" id="g4313">      
    <g id="g4311">                
      <path transform="scale(0.0025,-0.0025)" d="m 115,142 c 6,1 11,1 17,1 34,0 72,-12 108,-38 20,-14 43,-22 63,-22 22,0 40,10 45,30 2,7 7,10 12,10 7,0 13,-5 13,-13 v -4 C 355,39 292,0 231,0 194,0 158,14 133,45 121,60 104,68 87,68 58,68 29,47 26,12 25,4 19,0 13,0 6,0 0,5 0,13 c 0,174 234,164 234,342 0,58 -16,119 -66,119 -28,0 -55,-13 -55,-38 0,-27 35,-40 35,-67 0,-37 -31,-67 -68,-67 -37,0 -67,30 -67,67 0,77 73,131 155,131 97,0 189,-56 189,-145 C 357,207 213,197 115,142 Z" fill="currentColor" id="path4307"></path>
      <path transform="matrix(0.0025,0,0,-0.0025,0.9287,0)" d="m 0,56 c 0,31 25,56 56,56 31,0 56,-25 56,-56 C 112,25 87,0 56,0 25,0 0,25 0,56 Z" fill="currentColor" id="path4309"></path>
    </g>
  </g>
  <g transform="translate(63.852194,0.52474404)" id="g4317">      
    <line stroke-linejoin="round" stroke-linecap="round" stroke-width="0.139" stroke="currentColor" x1="23.732599" y1="0" x2="23.732599" y2="0" id="line4315"></line>
  </g>
  <g transform="translate(63.852194,0.52474404)" id="g4321">      
    <line stroke-linejoin="round" stroke-linecap="round" stroke-width="0.139" stroke="currentColor" x1="0.87730002" y1="0" x2="0.87730002" y2="2" id="line4319"></line>
  </g>
  <g transform="translate(63.852194,0.52474404)" id="g4325">      
    <line stroke-linejoin="round" stroke-linecap="round" stroke-width="0.139" stroke="currentColor" x1="0.87730002" y1="0" x2="23.732599" y2="0" id="line4323"></line>
  </g>
  <a style="color:inherit" xmlns:xlink="http://www.w3.org/1999/xlink" xlink:href="textedit:///home/jonathon/Dropbox/dev/obsmusic-process/testSVG/measuretypes.ly:24:2:3" id="a4331" transform="translate(-4.097106,-5.097156)">      
    <g transform="translate(167.4668,8.2348)" id="g4329">          
      <path transform="scale(0.004,-0.004)" d="m 215,114 c -50,0 -71,-42 -71,-88 0,-79 60,-140 139,-140 50,0 70,42 70,88 0,79 -59,140 -138,140 z M 497,0 c 0,-43 -35,-74 -73,-95 -54,-29 -114,-40 -175,-40 -61,0 -122,11 -176,40 -38,21 -73,52 -73,95 0,43 35,74 73,95 54,29 115,40 176,40 61,0 121,-11 175,-40 38,-21 73,-52 73,-95 z" fill="currentColor" id="path4327"></path>
    </g>
  </a>
  <a style="color:inherit" xmlns:xlink="http://www.w3.org/1999/xlink" xlink:href="textedit:///home/jonathon/Dropbox/dev/obsmusic-process/testSVG/measuretypes.ly:23:2:3" id="a4337" transform="translate(-4.097106,-5.097156)">      
    <g transform="translate(153.8444,8.7348)" id="g4335">          
      <path transform="scale(0.004,-0.004)" d="m 215,114 c -50,0 -71,-42 -71,-88 0,-79 60,-140 139,-140 50,0 70,42 70,88 0,79 -59,140 -138,140 z M 497,0 c 0,-43 -35,-74 -73,-95 -54,-29 -114,-40 -175,-40 -61,0 -122,11 -176,40 -38,21 -73,52 -73,95 0,43 35,74 73,95 54,29 115,40 176,40 61,0 121,-11 175,-40 38,-21 73,-52 73,-95 z" fill="currentColor" id="path4333"></path>
    </g>
  </a>
  <a style="color:inherit" xmlns:xlink="http://www.w3.org/1999/xlink" xlink:href="textedit:///home/jonathon/Dropbox/dev/obsmusic-process/testSVG/measuretypes.ly:30:2:3" id="a4343" transform="translate(-4.097106,-5.097156)">      
    <g transform="translate(248.0443,10.2348)" id="g4341">          
      <path transform="scale(0.004,-0.004)" d="m 215,114 c -50,0 -71,-42 -71,-88 0,-79 60,-140 139,-140 50,0 70,42 70,88 0,79 -59,140 -138,140 z M 497,0 c 0,-43 -35,-74 -73,-95 -54,-29 -114,-40 -175,-40 -61,0 -122,11 -176,40 -38,21 -73,52 -73,95 0,43 35,74 73,95 54,29 115,40 176,40 61,0 121,-11 175,-40 38,-21 73,-52 73,-95 z" fill="currentColor" id="path4339"></path>
    </g>
  </a>
  <a style="color:inherit" xmlns:xlink="http://www.w3.org/1999/xlink" xlink:href="textedit:///home/jonathon/Dropbox/dev/obsmusic-process/testSVG/measuretypes.ly:31:2:3" id="a4349" transform="translate(-4.097106,-5.097156)">      
    <g transform="translate(260.5932,10.7348)" id="g4347">          
      <path transform="scale(0.004,-0.004)" d="m 215,114 c -50,0 -71,-42 -71,-88 0,-79 60,-140 139,-140 50,0 70,42 70,88 0,79 -59,140 -138,140 z M 497,0 c 0,-43 -35,-74 -73,-95 -54,-29 -114,-40 -175,-40 -61,0 -122,11 -176,40 -38,21 -73,52 -73,95 0,43 35,74 73,95 54,29 115,40 176,40 61,0 121,-11 175,-40 38,-21 73,-52 73,-95 z" fill="currentColor" id="path4345"></path>
    </g>
  </a>
  <a style="color:inherit" xmlns:xlink="http://www.w3.org/1999/xlink" xlink:href="textedit:///home/jonathon/Dropbox/dev/obsmusic-process/testSVG/measuretypes.ly:27:2:3" id="a4355" transform="translate(-4.097106,-5.097156)">      
    <g transform="translate(208.4729,8.7348)" id="g4353">          
      <path transform="scale(0.004,-0.004)" d="m 215,114 c -50,0 -71,-42 -71,-88 0,-79 60,-140 139,-140 50,0 70,42 70,88 0,79 -59,140 -138,140 z M 497,0 c 0,-43 -35,-74 -73,-95 -54,-29 -114,-40 -175,-40 -61,0 -122,11 -176,40 -38,21 -73,52 -73,95 0,43 35,74 73,95 54,29 115,40 176,40 61,0 121,-11 175,-40 38,-21 73,-52 73,-95 z" fill="currentColor" id="path4351"></path>
    </g>
  </a>
  <a style="color:inherit" xmlns:xlink="http://www.w3.org/1999/xlink" xlink:href="textedit:///home/jonathon/Dropbox/dev/obsmusic-process/testSVG/measuretypes.ly:29:2:3" id="a4361" transform="translate(-4.097106,-5.097156)">      
    <g transform="translate(235.4954,9.7348)" id="g4359">          
      <path transform="scale(0.004,-0.004)" d="m 215,114 c -50,0 -71,-42 -71,-88 0,-79 60,-140 139,-140 50,0 70,42 70,88 0,79 -59,140 -138,140 z M 497,0 c 0,-43 -35,-74 -73,-95 -54,-29 -114,-40 -175,-40 -61,0 -122,11 -176,40 -38,21 -73,52 -73,95 0,43 35,74 73,95 54,29 115,40 176,40 61,0 121,-11 175,-40 38,-21 73,-52 73,-95 z" fill="currentColor" id="path4357"></path>
    </g>
  </a>
  <a style="color:inherit" xmlns:xlink="http://www.w3.org/1999/xlink" xlink:href="textedit:///home/jonathon/Dropbox/dev/obsmusic-process/testSVG/measuretypes.ly:28:2:3" id="a4367" transform="translate(-4.097106,-5.097156)">      
    <g transform="translate(221.0218,9.2348)" id="g4365">          
      <path transform="scale(0.004,-0.004)" d="m 215,114 c -50,0 -71,-42 -71,-88 0,-79 60,-140 139,-140 50,0 70,42 70,88 0,79 -59,140 -138,140 z M 497,0 c 0,-43 -35,-74 -73,-95 -54,-29 -114,-40 -175,-40 -61,0 -122,11 -176,40 -38,21 -73,52 -73,95 0,43 35,74 73,95 54,29 115,40 176,40 61,0 121,-11 175,-40 38,-21 73,-52 73,-95 z" fill="currentColor" id="path4363"></path>
    </g>
  </a>
  <a style="color:inherit" xmlns:xlink="http://www.w3.org/1999/xlink" xlink:href="textedit:///home/jonathon/Dropbox/dev/obsmusic-process/testSVG/measuretypes.ly:15:7:15" id="a4373" transform="translate(-4.097106,-5.097156)">      
    <g transform="translate(58.2471,11.7348)" id="g4371">          
      <path transform="scale(0.004,-0.004)" d="m 215,114 c -50,0 -71,-42 -71,-88 0,-79 60,-140 139,-140 50,0 70,42 70,88 0,79 -59,140 -138,140 z M 497,0 c 0,-43 -35,-74 -73,-95 -54,-29 -114,-40 -175,-40 -61,0 -122,11 -176,40 -38,21 -73,52 -73,95 0,43 35,74 73,95 54,29 115,40 176,40 61,0 121,-11 175,-40 38,-21 73,-52 73,-95 z" fill="currentColor" id="path4369"></path>
    </g>
  </a>
  <a style="color:inherit" xmlns:xlink="http://www.w3.org/1999/xlink" xlink:href="textedit:///home/jonathon/Dropbox/dev/obsmusic-process/testSVG/measuretypes.ly:15:3:11" id="a4379" transform="translate(-4.097106,-5.097156)">      
    <g transform="translate(47.1973,12.2348)" id="g4377">          
      <path transform="scale(0.004,-0.004)" d="m 215,114 c -50,0 -71,-42 -71,-88 0,-79 60,-140 139,-140 50,0 70,42 70,88 0,79 -59,140 -138,140 z M 497,0 c 0,-43 -35,-74 -73,-95 -54,-29 -114,-40 -175,-40 -61,0 -122,11 -176,40 -38,21 -73,52 -73,95 0,43 35,74 73,95 54,29 115,40 176,40 61,0 121,-11 175,-40 38,-21 73,-52 73,-95 z" fill="currentColor" id="path4375"></path>
    </g>
  </a>
  <a style="color:inherit" xmlns:xlink="http://www.w3.org/1999/xlink" xlink:href="textedit:///home/jonathon/Dropbox/dev/obsmusic-process/testSVG/measuretypes.ly:16:3:11" id="a4385" transform="translate(-4.097106,-5.097156)">      
    <g transform="translate(70.796,12.2348)" id="g4383">          
      <path transform="scale(0.004,-0.004)" d="m 215,114 c -50,0 -71,-42 -71,-88 0,-79 60,-140 139,-140 50,0 70,42 70,88 0,79 -59,140 -138,140 z M 497,0 c 0,-43 -35,-74 -73,-95 -54,-29 -114,-40 -175,-40 -61,0 -122,11 -176,40 -38,21 -73,52 -73,95 0,43 35,74 73,95 54,29 115,40 176,40 61,0 121,-11 175,-40 38,-21 73,-52 73,-95 z" fill="currentColor" id="path4381"></path>
    </g>
  </a>
  <a style="color:inherit" xmlns:xlink="http://www.w3.org/1999/xlink" xlink:href="textedit:///home/jonathon/Dropbox/dev/obsmusic-process/testSVG/measuretypes.ly:11:1:9" id="a4391" transform="translate(-4.097106,-5.097156)">      
    <g transform="translate(24.3158,13.2348)" id="g4389">          
      <path transform="scale(0.004,-0.004)" d="m 215,114 c -50,0 -71,-42 -71,-88 0,-79 60,-140 139,-140 50,0 70,42 70,88 0,79 -59,140 -138,140 z M 497,0 c 0,-43 -35,-74 -73,-95 -54,-29 -114,-40 -175,-40 -61,0 -122,11 -176,40 -38,21 -73,52 -73,95 0,43 35,74 73,95 54,29 115,40 176,40 61,0 121,-11 175,-40 38,-21 73,-52 73,-95 z" fill="currentColor" id="path4387"></path>
    </g>
  </a>
  <a style="color:inherit" xmlns:xlink="http://www.w3.org/1999/xlink" xlink:href="textedit:///home/jonathon/Dropbox/dev/obsmusic-process/testSVG/measuretypes.ly:6:2:3" id="a4397" transform="translate(-4.097106,-5.097156)">      
    <g transform="translate(9.5524,10.7348)" id="g4395">          
      <path transform="scale(0.004,-0.004)" d="m 360,25 c -51,0 -76,43 -76,77 0,39 28,78 74,78 6,0 13,0 18,-1 -29,37 -76,60 -126,60 C 144,239 137,166 137,54 V 0 -54 c 0,-112 7,-185 113,-185 82,0 145,68 164,151 1,6 6,9 10,9 6,0 11,-4 11,-11 0,-94 -107,-171 -185,-171 -68,0 -137,20 -184,69 C 17,-141 0,-70 0,0 c 0,70 17,141 66,192 47,49 116,69 184,69 88,0 163,-62 178,-148 1,-5 2,-9 2,-14 0,-40 -32,-74 -70,-74 z" fill="currentColor" id="path4393"></path>
    </g>
  </a>
  <a style="color:inherit" xmlns:xlink="http://www.w3.org/1999/xlink" xlink:href="textedit:///home/jonathon/Dropbox/dev/obsmusic-process/testSVG/measuretypes.ly:5:2:3" id="a4399" transform="translate(-4.097106,-5.097156)"></a>
  <g transform="translate(1.255294,6.637644)" id="g4403">      
    <path transform="scale(0.004,-0.004)" d="m 374,260 c 5,0 10,1 15,1 154,0 254,-127 254,-259 0,-76 -33,-153 -107,-208 -22,-17 -47,-29 -73,-37 3,-36 5,-72 5,-108 0,-19 0,-37 -1,-56 -7,-120 -88,-226 -206,-226 -108,0 -195,87 -195,195 0,58 53,104 112,104 54,0 95,-48 95,-104 0,-52 -43,-95 -95,-95 -12,0 -24,4 -35,9 26,-41 70,-70 121,-70 1,0 2,1 3,1 93,2 154,93 160,192 1,18 2,35 2,53 0,32 -2,64 -5,96 -29,-5 -58,-8 -89,-8 -188,0 -333,171 -333,372 0,178 133,306 251,440 -18,63 -35,126 -42,191 -6,51 -7,102 -7,154 0,116 55,226 150,295 5,4 11,4 16,0 70,-84 132,-246 132,-359 0,-144 -87,-256 -183,-365 20,-69 39,-138 55,-208 z m 85,-465 c 69,24 117,96 117,166 0,92 -69,184 -179,193 25,-117 48,-235 62,-359 z M 71,31 c 0,-136 131,-251 267,-251 28,0 55,2 82,6 C 405,-86 382,33 356,153 277,144 231,91 231,32 c 0,-44 26,-92 82,-124 4,-4 7,-9 7,-14 0,-11 -9,-21 -20,-21 -3,0 -6,1 -9,2 -80,43 -116,114 -116,184 0,88 57,173 158,196 -14,60 -30,119 -46,178 C 179,312 71,191 71,31 Z M 411,1050 C 312,1000 250,899 250,788 c 0,-76 15,-137 33,-200 82,97 149,198 149,325 0,58 -4,84 -21,137 z" fill="currentColor" id="path4401"></path>
  </g>
  <a style="color:inherit" xmlns:xlink="http://www.w3.org/1999/xlink" xlink:href="textedit:///home/jonathon/Dropbox/dev/obsmusic-process/testSVG/measuretypes.ly:10:1:9" id="a4409" transform="translate(-4.097106,-5.097156)">      
    <g transform="translate(13.266,13.7348)" id="g4407">          
      <path transform="scale(0.004,-0.004)" d="m 215,114 c -50,0 -71,-42 -71,-88 0,-79 60,-140 139,-140 50,0 70,42 70,88 0,79 -59,140 -138,140 z M 497,0 c 0,-43 -35,-74 -73,-95 -54,-29 -114,-40 -175,-40 -61,0 -122,11 -176,40 -38,21 -73,52 -73,95 0,43 35,74 73,95 54,29 115,40 176,40 61,0 121,-11 175,-40 38,-21 73,-52 73,-95 z" fill="currentColor" id="path4405"></path>
    </g>
  </a>
  <a style="color:inherit" xmlns:xlink="http://www.w3.org/1999/xlink" xlink:href="textedit:///home/jonathon/Dropbox/dev/obsmusic-process/testSVG/measuretypes.ly:12:1:9" id="a4415" transform="translate(-4.097106,-5.097156)">      
    <g transform="translate(35.7913,12.7348)" id="g4413">          
      <path transform="scale(0.004,-0.004)" d="m 215,114 c -50,0 -71,-42 -71,-88 0,-79 60,-140 139,-140 50,0 70,42 70,88 0,79 -59,140 -138,140 z M 497,0 c 0,-43 -35,-74 -73,-95 -54,-29 -114,-40 -175,-40 -61,0 -122,11 -176,40 -38,21 -73,52 -73,95 0,43 35,74 73,95 54,29 115,40 176,40 61,0 121,-11 175,-40 38,-21 73,-52 73,-95 z" fill="currentColor" id="path4411"></path>
    </g>
  </a>
  <a style="color:inherit" xmlns:xlink="http://www.w3.org/1999/xlink" xlink:href="textedit:///home/jonathon/Dropbox/dev/obsmusic-process/testSVG/measuretypes.ly:20:2:3" id="a4421" transform="translate(-4.097106,-5.097156)">      
    <g transform="translate(118.904,10.2348)" id="g4419">          
      <path transform="scale(0.004,-0.004)" d="m 215,114 c -50,0 -71,-42 -71,-88 0,-79 60,-140 139,-140 50,0 70,42 70,88 0,79 -59,140 -138,140 z M 497,0 c 0,-43 -35,-74 -73,-95 -54,-29 -114,-40 -175,-40 -61,0 -122,11 -176,40 -38,21 -73,52 -73,95 0,43 35,74 73,95 54,29 115,40 176,40 61,0 121,-11 175,-40 38,-21 73,-52 73,-95 z" fill="currentColor" id="path4417"></path>
    </g>
  </a>
  <a style="color:inherit" xmlns:xlink="http://www.w3.org/1999/xlink" xlink:href="textedit:///home/jonathon/Dropbox/dev/obsmusic-process/testSVG/measuretypes.ly:19:2:3" id="a4427" transform="translate(-4.097106,-5.097156)">      
    <g transform="translate(107.0725,10.7348)" id="g4425">          
      <path transform="scale(0.004,-0.004)" d="m 215,114 c -50,0 -71,-42 -71,-88 0,-79 60,-140 139,-140 50,0 70,42 70,88 0,79 -59,140 -138,140 z M 497,0 c 0,-43 -35,-74 -73,-95 -54,-29 -114,-40 -175,-40 -61,0 -122,11 -176,40 -38,21 -73,52 -73,95 0,43 35,74 73,95 54,29 115,40 176,40 61,0 121,-11 175,-40 38,-21 73,-52 73,-95 z" fill="currentColor" id="path4423"></path>
    </g>
  </a>
  <a style="color:inherit" xmlns:xlink="http://www.w3.org/1999/xlink" xlink:href="textedit:///home/jonathon/Dropbox/dev/obsmusic-process/testSVG/measuretypes.ly:21:2:3" id="a4433" transform="translate(-4.097106,-5.097156)">      
    <g transform="translate(130.2456,9.7348)" id="g4431">          
      <path transform="scale(0.004,-0.004)" d="m 215,114 c -50,0 -71,-42 -71,-88 0,-79 60,-140 139,-140 50,0 70,42 70,88 0,79 -59,140 -138,140 z M 497,0 c 0,-43 -35,-74 -73,-95 -54,-29 -114,-40 -175,-40 -61,0 -122,11 -176,40 -38,21 -73,52 -73,95 0,43 35,74 73,95 54,29 115,40 176,40 61,0 121,-11 175,-40 38,-21 73,-52 73,-95 z" fill="currentColor" id="path4429"></path>
    </g>
  </a>
  <a style="color:inherit" xmlns:xlink="http://www.w3.org/1999/xlink" xlink:href="textedit:///home/jonathon/Dropbox/dev/obsmusic-process/testSVG/measuretypes.ly:18:2:3" id="a4439" transform="translate(-4.097106,-5.097156)">      
    <g transform="translate(94.8153,11.2348)" id="g4437">          
      <path transform="scale(0.004,-0.004)" d="m 215,114 c -50,0 -71,-42 -71,-88 0,-79 60,-140 139,-140 50,0 70,42 70,88 0,79 -59,140 -138,140 z M 497,0 c 0,-43 -35,-74 -73,-95 -54,-29 -114,-40 -175,-40 -61,0 -122,11 -176,40 -38,21 -73,52 -73,95 0,43 35,74 73,95 54,29 115,40 176,40 61,0 121,-11 175,-40 38,-21 73,-52 73,-95 z" fill="currentColor" id="path4435"></path>
    </g>
  </a>
  <a style="color:inherit" xmlns:xlink="http://www.w3.org/1999/xlink" xlink:href="textedit:///home/jonathon/Dropbox/dev/obsmusic-process/testSVG/measuretypes.ly:16:15:23" id="a4445" transform="translate(-4.097106,-5.097156)">      
    <g transform="translate(82.6276,12.7348)" id="g4443">          
      <path transform="scale(0.004,-0.004)" d="m 215,114 c -50,0 -71,-42 -71,-88 0,-79 60,-140 139,-140 50,0 70,42 70,88 0,79 -59,140 -138,140 z M 497,0 c 0,-43 -35,-74 -73,-95 -54,-29 -114,-40 -175,-40 -61,0 -122,11 -176,40 -38,21 -73,52 -73,95 0,43 35,74 73,95 54,29 115,40 176,40 61,0 121,-11 175,-40 38,-21 73,-52 73,-95 z" fill="currentColor" id="path4441"></path>
    </g>
  </a>
</svg>