<svg xmlns="http://www.w3.org/2000/svg" version="1.2" width="91.501129mm" height="18.079269mm" viewBox="0 0 41.65539 8.2304789" id="svg6992" xmlns:sodipodi-0.dtd="http://sodipodi.sourceforge.net/DTD/sodipodi-0.dtd" sodipodi-0.dtd:docname="simple-inkscape.svg" xmlns:inkscape="http://www.inkscape.org/namespaces/inkscape" inkscape:version="1.1.1 (3bf5ae0d25, 2021-09-20)" xmlns:_xmlns="xmlns" _xmlns:inkscape="http://www.inkscape.org/namespaces/inkscape" _xmlns:sodipodi="http://sodipodi.sourceforge.net/DTD/sodipodi-0.dtd" _xmlns:svg="http://www.w3.org/2000/svg">                            
  <defs id="defs6996"></defs>
  <namedview xmlns="http://sodipodi.sourceforge.net/DTD/sodipodi-0.dtd" id="namedview6994" pagecolor="#ffffff" bordercolor="#666666" borderopacity="1.0" inkscape:pageshadow="2" inkscape:pageopacity="0.0" inkscape:pagecheckerboard="0" inkscape:document-units="mm" showgrid="false" lock-margins="true" fit-margin-top="1" fit-margin-left="1" fit-margin-right="1" fit-margin-bottom="1" inkscape:zoom="1.6091477" inkscape:cx="153.18668" inkscape:cy="41.947671" inkscape:window-width="1920" inkscape:window-height="1016" inkscape:window-x="0" inkscape:window-y="27" inkscape:window-maximized="1" inkscape:current-layer="svg6992"></namedview>
  <style type="text/css" id="style6922">tspan { white-space: pre; }</style>
  <g id="g6944" transform="translate(-4.0971054,-5.0971696)">                      
    <g transform="translate(4.5524,11.3324)" id="g6926">          
      <line stroke-linejoin="round" stroke-linecap="round" stroke-width="0.0869" stroke="currentColor" x1="0.043400001" y1="0" x2="40.701401" y2="0" id="line6924"></line>
    </g>
    <g transform="translate(4.5524,10.3324)" id="g6930">          
      <line stroke-linejoin="round" stroke-linecap="round" stroke-width="0.0869" stroke="currentColor" x1="0.043400001" y1="0" x2="40.701401" y2="0" id="line6928"></line>
    </g>
    <g transform="translate(4.5524,9.3324)" id="g6934">          
      <line stroke-linejoin="round" stroke-linecap="round" stroke-width="0.0869" stroke="currentColor" x1="0.043400001" y1="0" x2="40.701401" y2="0" id="line6932"></line>
    </g>
    <g transform="translate(4.5524,8.3324)" id="g6938">          
      <line stroke-linejoin="round" stroke-linecap="round" stroke-width="0.0869" stroke="currentColor" x1="0.043400001" y1="0" x2="40.701401" y2="0" id="line6936"></line>
    </g>
    <g transform="translate(4.5524,7.3324)" id="g6942">          
      <line stroke-linejoin="round" stroke-linecap="round" stroke-width="0.0869" stroke="currentColor" x1="0.043400001" y1="0" x2="40.701401" y2="0" id="line6940"></line>
    </g>
  </g>
  <g transform="translate(0.45529456,7.2352304)" id="g6948">      
    <rect x="8.2164001" y="-0.093400002" width="2.9830999" height="0.1869" ry="0.093400002" fill="currentColor" id="rect6946"></rect>
  </g>
  <g id="g6954" transform="translate(-4.0971054,-5.0971696)">      
    <g transform="translate(33.3007,9.3324)" id="g6952">          
      <rect x="0" y="-2.0434" width="0.16500001" height="4.0869002" ry="0.0000" fill="currentColor" id="rect6950"></rect>
    </g>
  </g>
  <g id="g6960" transform="translate(-4.0971054,-5.0971696)">      
    <g transform="translate(22.2508,9.3324)" id="g6958">          
      <rect x="0" y="-2.0434" width="0.16500001" height="4.0869002" ry="0.0000" fill="currentColor" id="rect6956"></rect>
    </g>
  </g>
  <g id="g6970" transform="translate(-4.0971054,-5.0971696)">          
    <g transform="translate(44.7761,9.3324)" id="g6964">          
      <rect x="0" y="-2.0434" width="0.52109998" height="4.0869002" ry="0.0000" fill="currentColor" id="rect6962"></rect>
    </g>
    <g transform="translate(44.3505,9.3324)" id="g6968">          
      <rect x="0" y="-2.0434" width="0.16500001" height="4.0869002" ry="0.0000" fill="currentColor" id="rect6966"></rect>
    </g>
  </g>
  <g transform="translate(31.268595,6.2352304)" id="g6974">      
    <path transform="scale(0.004,-0.004)" d="m 215,114 c -50,0 -71,-42 -71,-88 0,-79 60,-140 139,-140 50,0 70,42 70,88 0,79 -59,140 -138,140 z M 497,0 c 0,-43 -35,-74 -73,-95 -54,-29 -114,-40 -175,-40 -61,0 -122,11 -176,40 -38,21 -73,52 -73,95 0,43 35,74 73,95 54,29 115,40 176,40 61,0 121,-11 175,-40 38,-21 73,-52 73,-95 z" fill="currentColor" id="path6972"></path>
  </g>
  <g transform="translate(5.4552946,4.2352304)" id="g6978">      
    <path transform="scale(0.004,-0.004)" d="m 360,25 c -51,0 -76,43 -76,77 0,39 28,78 74,78 6,0 13,0 18,-1 -29,37 -76,60 -126,60 C 144,239 137,166 137,54 V 0 -54 c 0,-112 7,-185 113,-185 82,0 145,68 164,151 1,6 6,9 10,9 6,0 11,-4 11,-11 0,-94 -107,-171 -185,-171 -68,0 -137,20 -184,69 C 17,-141 0,-70 0,0 c 0,70 17,141 66,192 47,49 116,69 184,69 88,0 163,-62 178,-148 1,-5 2,-9 2,-14 0,-40 -32,-74 -70,-74 z" fill="currentColor" id="path6976"></path>
  </g>
  <g transform="translate(1.2552946,5.2352304)" id="g6982">      
    <path transform="scale(0.004,-0.004)" d="m 374,260 c 5,0 10,1 15,1 154,0 254,-127 254,-259 0,-76 -33,-153 -107,-208 -22,-17 -47,-29 -73,-37 3,-36 5,-72 5,-108 0,-19 0,-37 -1,-56 -7,-120 -88,-226 -206,-226 -108,0 -195,87 -195,195 0,58 53,104 112,104 54,0 95,-48 95,-104 0,-52 -43,-95 -95,-95 -12,0 -24,4 -35,9 26,-41 70,-70 121,-70 1,0 2,1 3,1 93,2 154,93 160,192 1,18 2,35 2,53 0,32 -2,64 -5,96 -29,-5 -58,-8 -89,-8 -188,0 -333,171 -333,372 0,178 133,306 251,440 -18,63 -35,126 -42,191 -6,51 -7,102 -7,154 0,116 55,226 150,295 5,4 11,4 16,0 70,-84 132,-246 132,-359 0,-144 -87,-256 -183,-365 20,-69 39,-138 55,-208 z m 85,-465 c 69,24 117,96 117,166 0,92 -69,184 -179,193 25,-117 48,-235 62,-359 z M 71,31 c 0,-136 131,-251 267,-251 28,0 55,2 82,6 C 405,-86 382,33 356,153 277,144 231,91 231,32 c 0,-44 26,-92 82,-124 4,-4 7,-9 7,-14 0,-11 -9,-21 -20,-21 -3,0 -6,1 -9,2 -80,43 -116,114 -116,184 0,88 57,173 158,196 -14,60 -30,119 -46,178 C 179,312 71,191 71,31 Z M 411,1050 C 312,1000 250,899 250,788 c 0,-76 15,-137 33,-200 82,97 149,198 149,325 0,58 -4,84 -21,137 z" fill="currentColor" id="path6980"></path>
  </g>
  <g transform="translate(9.1688946,7.2352304)" id="g6986">      
    <path transform="scale(0.004,-0.004)" d="m 215,114 c -50,0 -71,-42 -71,-88 0,-79 60,-140 139,-140 50,0 70,42 70,88 0,79 -59,140 -138,140 z M 497,0 c 0,-43 -35,-74 -73,-95 -54,-29 -114,-40 -175,-40 -61,0 -122,11 -176,40 -38,21 -73,52 -73,95 0,43 35,74 73,95 54,29 115,40 176,40 61,0 121,-11 175,-40 38,-21 73,-52 73,-95 z" fill="currentColor" id="path6984"></path>
  </g>
  <g transform="translate(20.218695,6.7352304)" id="g6990">      
    <path transform="scale(0.004,-0.004)" d="m 215,114 c -50,0 -71,-42 -71,-88 0,-79 60,-140 139,-140 50,0 70,42 70,88 0,79 -59,140 -138,140 z M 497,0 c 0,-43 -35,-74 -73,-95 -54,-29 -114,-40 -175,-40 -61,0 -122,11 -176,40 -38,21 -73,52 -73,95 0,43 35,74 73,95 54,29 115,40 176,40 61,0 121,-11 175,-40 38,-21 73,-52 73,-95 z" fill="currentColor" id="path6988"></path>
  </g>
</svg>