<svg xmlns="http://www.w3.org/2000/svg" version="1.2" width="93.945549mm" height="26.952631mm" viewBox="0 0 59.400205 17.041717" id="svg211493" xmlns:sodipodi-0.dtd="http://sodipodi.sourceforge.net/DTD/sodipodi-0.dtd" sodipodi-0.dtd:docname="simplepiano-inkscape.svg" xmlns:inkscape="http://www.inkscape.org/namespaces/inkscape" inkscape:version="1.1.1 (3bf5ae0d25, 2021-09-20)" xmlns:_xmlns="xmlns" _xmlns:inkscape="http://www.inkscape.org/namespaces/inkscape" _xmlns:sodipodi="http://sodipodi.sourceforge.net/DTD/sodipodi-0.dtd" _xmlns:svg="http://www.w3.org/2000/svg">                                                                                                  
  <defs id="defs211497"></defs>
  <namedview xmlns="http://sodipodi.sourceforge.net/DTD/sodipodi-0.dtd" id="namedview211495" pagecolor="#ffffff" bordercolor="#666666" borderopacity="1.0" inkscape:pageshadow="2" inkscape:pageopacity="0.0" inkscape:pagecheckerboard="0" inkscape:document-units="mm" showgrid="false" lock-margins="true" fit-margin-top="1" fit-margin-left="1" fit-margin-right="1" fit-margin-bottom="1" inkscape:zoom="1.6205729" inkscape:cx="-8.3303873" inkscape:cy="54.610317" inkscape:window-width="1920" inkscape:window-height="1016" inkscape:window-x="0" inkscape:window-y="27" inkscape:window-maximized="0" inkscape:current-layer="svg211493"></namedview>
  <style type="text/css" id="style211263">tspan { white-space: pre; }</style>
  <g id="g211285" transform="translate(-4.4669555,-6.690367)">                      
    <g transform="translate(6.3228,13.0998)" id="g211267">          
      <line stroke-linejoin="round" stroke-linecap="round" stroke-width="0.1073" stroke="currentColor" x1="0.0537" y1="0" x2="56.858398" y2="0" id="line211265"></line>
    </g>
    <g transform="translate(6.3228,12.0998)" id="g211271">          
      <line stroke-linejoin="round" stroke-linecap="round" stroke-width="0.1073" stroke="currentColor" x1="0.0537" y1="0" x2="56.858398" y2="0" id="line211269"></line>
    </g>
    <g transform="translate(6.3228,11.0998)" id="g211275">          
      <line stroke-linejoin="round" stroke-linecap="round" stroke-width="0.1073" stroke="currentColor" x1="0.0537" y1="0" x2="56.858398" y2="0" id="line211273"></line>
    </g>
    <g transform="translate(6.3228,10.0998)" id="g211279">          
      <line stroke-linejoin="round" stroke-linecap="round" stroke-width="0.1073" stroke="currentColor" x1="0.0537" y1="0" x2="56.858398" y2="0" id="line211277"></line>
    </g>
    <g transform="translate(6.3228,9.0998)" id="g211283">          
      <line stroke-linejoin="round" stroke-linecap="round" stroke-width="0.1073" stroke="currentColor" x1="0.0537" y1="0" x2="56.858398" y2="0" id="line211281"></line>
    </g>
  </g>
  <g id="g211291" transform="translate(-4.4669555,-6.690367)">      
    <g transform="translate(45.7815,20.0998)" id="g211289">          
      <rect x="0" y="-2.0537" width="0.20389999" height="4.1072998" ry="0.0000" fill="currentColor" id="rect211287"></rect>
    </g>
  </g>
  <g transform="translate(41.314545,0.63243301)" id="g211295">      
    <rect x="0" y="5.8306999" width="0.20389999" height="4.8927002" ry="0.0000" fill="currentColor" id="rect211293"></rect>
  </g>
  <g id="g211301" transform="translate(-4.4669555,-6.690367)">      
    <g transform="translate(63.031,11.0998)" id="g211299">          
      <rect x="0" y="-2.0537" width="0.20389999" height="4.1072998" ry="0.0000" fill="currentColor" id="rect211297"></rect>
    </g>
  </g>
  <g id="g211307" transform="translate(-4.4669555,-6.690367)">      
    <g transform="translate(45.7815,11.0998)" id="g211305">          
      <rect x="0" y="-2.0537" width="0.20389999" height="4.1072998" ry="0.0000" fill="currentColor" id="rect211303"></rect>
    </g>
  </g>
  <g id="g211313" transform="translate(-4.4669555,-6.690367)">      
    <g transform="translate(29.6409,11.0998)" id="g211311">          
      <rect x="0" y="-2.0537" width="0.20389999" height="4.1072998" ry="0.0000" fill="currentColor" id="rect211309"></rect>
    </g>
  </g>
  <g id="g211319" transform="translate(-4.4669555,-6.690367)">      
    <g transform="translate(63.031,20.0998)" id="g211317">          
      <rect x="0" y="-2.0537" width="0.20389999" height="4.1072998" ry="0.0000" fill="currentColor" id="rect211315"></rect>
    </g>
  </g>
  <g transform="translate(58.564045,0.63243301)" id="g211323">      
    <rect x="0" y="5.8306999" width="0.20389999" height="4.8927002" ry="0.0000" fill="currentColor" id="rect211321"></rect>
  </g>
  <g transform="translate(25.173945,0.63243301)" id="g211327">      
    <rect x="0" y="5.8306999" width="0.20389999" height="4.8927002" ry="0.0000" fill="currentColor" id="rect211325"></rect>
  </g>
  <g id="g211333" transform="translate(-4.4669555,-6.690367)">      
    <g transform="translate(29.6409,20.0998)" id="g211331">          
      <rect x="0" y="-2.0537" width="0.20389999" height="4.1072998" ry="0.0000" fill="currentColor" id="rect211329"></rect>
    </g>
  </g>
  <g id="g211355" transform="translate(-4.4669555,-6.690367)">                      
    <g transform="translate(6.3228,22.0998)" id="g211337">          
      <line stroke-linejoin="round" stroke-linecap="round" stroke-width="0.1073" stroke="currentColor" x1="0.0537" y1="0" x2="56.858398" y2="0" id="line211335"></line>
    </g>
    <g transform="translate(6.3228,21.0998)" id="g211341">          
      <line stroke-linejoin="round" stroke-linecap="round" stroke-width="0.1073" stroke="currentColor" x1="0.0537" y1="0" x2="56.858398" y2="0" id="line211339"></line>
    </g>
    <g transform="translate(6.3228,20.0998)" id="g211345">          
      <line stroke-linejoin="round" stroke-linecap="round" stroke-width="0.1073" stroke="currentColor" x1="0.0537" y1="0" x2="56.858398" y2="0" id="line211343"></line>
    </g>
    <g transform="translate(6.3228,19.0998)" id="g211349">          
      <line stroke-linejoin="round" stroke-linecap="round" stroke-width="0.1073" stroke="currentColor" x1="0.0537" y1="0" x2="56.858398" y2="0" id="line211347"></line>
    </g>
    <g transform="translate(6.3228,18.0998)" id="g211353">          
      <line stroke-linejoin="round" stroke-linecap="round" stroke-width="0.1073" stroke="currentColor" x1="0.0537" y1="0" x2="56.858398" y2="0" id="line211351"></line>
    </g>
  </g>
  <g transform="translate(35.106245,13.409433)" id="g211359">      
    <rect x="-0.069700003" y="-3" width="0.13950001" height="3.3206" ry="0.044399999" fill="currentColor" id="rect211357"></rect>
  </g>
  <g transform="translate(37.575945,4.409433)" id="g211363">      
    <path transform="scale(0.004,-0.004)" d="m 215,137 c 57,0 111,-29 111,-92 0,-71 -54,-120 -101,-148 -35,-21 -74,-34 -114,-34 -57,0 -111,29 -111,92 0,71 54,120 101,148 35,21 74,34 114,34 z" fill="currentColor" id="path211361"></path>
  </g>
  <g transform="translate(37.575945,14.409433)" id="g211367">      
    <path transform="scale(0.004,-0.004)" d="m 215,137 c 57,0 111,-29 111,-92 0,-71 -54,-120 -101,-148 -35,-21 -74,-34 -114,-34 -57,0 -111,29 -111,92 0,71 54,120 101,148 35,21 74,34 114,34 z" fill="currentColor" id="path211365"></path>
  </g>
  <g transform="translate(37.645745,4.409433)" id="g211371">      
    <rect x="-0.069700003" y="0.1794" width="0.13950001" height="3.154" ry="0.044399999" fill="currentColor" id="rect211369"></rect>
  </g>
  <g transform="translate(38.809045,13.409433)" id="g211375">      
    <rect x="-0.069700003" y="-2.5" width="0.13950001" height="3.3206" ry="0.044399999" fill="currentColor" id="rect211373"></rect>
  </g>
  <g transform="translate(30.240145,4.409433)" id="g211379">      
    <rect x="-0.069700003" y="-0.82059997" width="0.13950001" height="3.3206" ry="0.044399999" fill="currentColor" id="rect211377"></rect>
  </g>
  <g transform="translate(30.170345,3.409433)" id="g211383">      
    <path transform="scale(0.004,-0.004)" d="m 215,137 c 57,0 111,-29 111,-92 0,-71 -54,-120 -101,-148 -35,-21 -74,-34 -114,-34 -57,0 -111,29 -111,92 0,71 54,120 101,148 35,21 74,34 114,34 z" fill="currentColor" id="path211381"></path>
  </g>
  <g transform="translate(33.873145,3.909433)" id="g211387">      
    <path transform="scale(0.004,-0.004)" d="m 215,137 c 57,0 111,-29 111,-92 0,-71 -54,-120 -101,-148 -35,-21 -74,-34 -114,-34 -57,0 -111,29 -111,92 0,71 54,120 101,148 35,21 74,34 114,34 z" fill="currentColor" id="path211385"></path>
  </g>
  <g transform="translate(33.873145,13.909433)" id="g211391">      
    <path transform="scale(0.004,-0.004)" d="m 215,137 c 57,0 111,-29 111,-92 0,-71 -54,-120 -101,-148 -35,-21 -74,-34 -114,-34 -57,0 -111,29 -111,92 0,71 54,120 101,148 35,21 74,34 114,34 z" fill="currentColor" id="path211389"></path>
  </g>
  <g transform="translate(33.942945,4.409433)" id="g211395">      
    <rect x="-0.069700003" y="-0.3206" width="0.13950001" height="3.3206" ry="0.044399999" fill="currentColor" id="rect211393"></rect>
  </g>
  <g transform="translate(43.418345,14.909433)" id="g211399">      
    <path transform="scale(0.004,-0.004)" d="m 211,111 c -49,0 -68,-43 -68,-88 0,-75 57,-134 132,-134 49,0 68,43 68,88 0,75 -57,134 -132,134 z M 486,0 c 0,-43 -33,-76 -71,-97 -52,-29 -112,-40 -172,-40 -60,0 -120,11 -172,40 -38,21 -71,54 -71,97 0,43 33,76 71,97 52,29 112,40 172,40 60,0 120,-11 172,-40 38,-21 71,-54 71,-97 z" fill="currentColor" id="path211397"></path>
  </g>
  <g transform="translate(43.418345,4.909433)" id="g211403">      
    <path transform="scale(0.004,-0.004)" d="m 211,111 c -49,0 -68,-43 -68,-88 0,-75 57,-134 132,-134 49,0 68,43 68,88 0,75 -57,134 -132,134 z M 486,0 c 0,-43 -33,-76 -71,-97 -52,-29 -112,-40 -172,-40 -60,0 -120,11 -172,40 -38,21 -71,54 -71,97 0,43 33,76 71,97 52,29 112,40 172,40 60,0 120,-11 172,-40 38,-21 71,-54 71,-97 z" fill="currentColor" id="path211401"></path>
  </g>
  <g transform="translate(11.858645,13.409433)" id="g211407">      
    <rect x="-0.069700003" y="-2" width="0.13950001" height="3.247" ry="0.044399999" fill="currentColor" id="rect211405"></rect>
  </g>
  <g transform="translate(14.270845,4.409433)" id="g211411">      
    <path transform="scale(0.004,-0.004)" d="m 215,137 c 57,0 111,-29 111,-92 0,-71 -54,-120 -101,-148 -35,-21 -74,-34 -114,-34 -57,0 -111,29 -111,92 0,71 54,120 101,148 35,21 74,34 114,34 z" fill="currentColor" id="path211409"></path>
  </g>
  <g transform="translate(14.340545,4.409433)" id="g211415">      
    <rect x="-0.069700003" y="0.1794" width="0.13950001" height="3.154" ry="0.044399999" fill="currentColor" id="rect211413"></rect>
  </g>
  <g transform="translate(10.547845,4.909433)" id="g211419">      
    <path transform="scale(0.004,-0.004)" d="m 215,137 c 57,0 111,-29 111,-92 0,-71 -54,-120 -101,-148 -35,-21 -74,-34 -114,-34 -57,0 -111,29 -111,92 0,71 54,120 101,148 35,21 74,34 114,34 z" fill="currentColor" id="path211417"></path>
  </g>
  <g transform="translate(1.4842445,8.909433)" id="g211423">      
    <path transform="scale(0.004,-0.004)" d="m -189,-1146 c 0,267 108,528 108,780 0,135 -33,261 -129,360 -3,3 -3,3 -3,6 0,3 0,3 3,6 96,99 129,225 129,360 0,252 -108,513 -108,780 0,189 45,366 177,501 15,15 39,-9 24,-24 -99,-99 -129,-225 -129,-360 0,-249 102,-504 102,-765 0,-186 -45,-363 -174,-498 129,-135 174,-312 174,-498 0,-261 -102,-516 -102,-765 0,-135 30,-261 129,-360 15,-15 -9,-39 -24,-24 -132,135 -177,312 -177,501 z" fill="currentColor" id="path211421"></path>
  </g>
  <g transform="translate(1.7842445,8.909433)" id="g211427">      
    <rect x="0" y="-6.5537" width="0.1717" height="13.1073" ry="0.0537" fill="currentColor" id="rect211425"></rect>
  </g>
  <g transform="translate(2.6558445,5.409433)" id="g211431">      
    <path transform="scale(0.004,-0.004)" d="m 378,263 c 4,0 7,1 11,1 156,0 257,-129 257,-262 0,-76 -34,-154 -108,-210 -22,-17 -46,-29 -72,-37 3,-34 5,-68 5,-102 0,-20 -1,-40 -2,-60 -7,-121 -90,-228 -209,-228 -108,0 -196,87 -196,196 0,58 53,104 112,104 54,0 95,-48 95,-104 0,-52 -43,-95 -95,-95 -10,0 -20,2 -29,6 26,-38 68,-63 116,-63 h 3 c 93,2 153,92 159,190 1,19 2,37 2,56 0,30 -2,60 -4,90 -29,-5 -58,-8 -88,-8 -188,0 -333,173 -333,375 0,177 130,307 246,442 -20,62 -38,125 -46,190 -6,52 -7,104 -7,157 0,115 55,223 148,290 7,5 16,4 22,-1 71,-83 134,-244 134,-357 0,-143 -85,-255 -178,-364 21,-68 40,-137 57,-206 z m 84,-465 c 67,24 111,94 111,162 0,89 -65,178 -170,190 24,-115 46,-230 59,-352 z M 75,26 c 0,-134 129,-245 263,-245 28,0 55,2 81,6 C 405,-87 383,31 358,150 279,142 234,89 234,31 c 0,-43 25,-89 80,-121 5,-5 7,-11 7,-16 0,-12 -10,-23 -22,-23 -3,0 -6,1 -9,2 -81,43 -118,116 -118,186 0,89 58,175 161,198 -14,58 -29,116 -46,173 C 181,308 75,186 75,26 Z M 406,1042 C 307,995 244,894 244,785 c 0,-73 20,-132 38,-191 79,97 144,199 144,324 0,53 -4,76 -20,124 z" fill="currentColor" id="path211429"></path>
  </g>
  <g transform="translate(6.8558445,4.409433)" id="g211435">      
    <path transform="scale(0.004,-0.004)" d="m 358,29 c -49,0 -74,41 -74,73 0,38 27,76 71,76 4,0 7,0 11,-1 -27,36 -69,59 -116,59 -106,0 -113,-74 -113,-188 0,-15 1,-31 1,-48 0,-17 -1,-33 -1,-48 0,-114 7,-188 113,-188 79,0 136,70 155,150 2,7 7,10 13,10 7,0 14,-5 14,-13 0,-95 -105,-175 -182,-175 -68,0 -137,20 -184,70 C 17,-143 0,-71 0,0 c 0,71 17,143 66,194 47,50 116,70 184,70 86,0 159,-66 173,-152 1,-4 1,-9 1,-13 0,-39 -30,-70 -66,-70 z" fill="currentColor" id="path211433"></path>
  </g>
  <g transform="translate(10.547845,14.909433)" id="g211439">      
    <path transform="scale(0.004,-0.004)" d="m 312,64 c 0,24 -20,41 -41,41 -4,0 -8,-1 -12,-2 C 229,94 182,65 146,41 110,17 63,-13 43,-37 36,-45 33,-54 33,-64 c 0,-24 20,-41 41,-41 4,0 8,1 12,2 30,9 77,38 113,62 36,24 83,54 103,78 7,8 10,17 10,27 z m -53,73 c 48,0 86,-22 86,-74 0,-18 -4,-38 -10,-56 -12,-38 -30,-73 -63,-95 -53,-36 -113,-49 -186,-49 -48,0 -86,22 -86,74 0,18 4,38 10,56 12,38 31,73 64,95 53,36 112,49 185,49 z" fill="currentColor" id="path211437"></path>
  </g>
  <g transform="translate(2.6558445,12.409433)" id="g211443">      
    <path transform="scale(0.004,-0.004)" d="m 558,-125 c 0,28 22,51 50,51 28,0 51,-23 51,-51 0,-28 -23,-51 -51,-51 -28,0 -50,23 -50,51 z m 0,250 c 0,28 22,51 50,51 28,0 51,-23 51,-51 0,-28 -23,-51 -51,-51 -28,0 -50,23 -50,51 z M 231,264 c 172,0 294,-88 294,-251 0,-263 -262,-416 -515,-523 -3,-3 -7,-4 -10,-4 -7,0 -14,7 -14,14 0,3 1,7 4,10 201,118 410,265 410,492 0,119 -61,234 -169,234 -72,0 -124,-53 -148,-123 10,4 19,6 29,6 C 167,119 212,74 212,19 212,-39 168,-87 112,-87 52,-87 0,-40 0,19 0,152 101,264 231,264 Z" fill="currentColor" id="path211441"></path>
  </g>
  <g transform="translate(6.8558445,13.409433)" id="g211447">      
    <path transform="scale(0.004,-0.004)" d="m 358,29 c -49,0 -74,41 -74,73 0,38 27,76 71,76 4,0 7,0 11,-1 -27,36 -69,59 -116,59 -106,0 -113,-74 -113,-188 0,-15 1,-31 1,-48 0,-17 -1,-33 -1,-48 0,-114 7,-188 113,-188 79,0 136,70 155,150 2,7 7,10 13,10 7,0 14,-5 14,-13 0,-95 -105,-175 -182,-175 -68,0 -137,20 -184,70 C 17,-143 0,-71 0,0 c 0,71 17,143 66,194 47,50 116,70 184,70 86,0 159,-66 173,-152 1,-4 1,-9 1,-13 0,-39 -30,-70 -66,-70 z" fill="currentColor" id="path211445"></path>
  </g>
  <g transform="translate(11.780945,4.409433)" id="g211451">      
    <rect x="-0.069700003" y="-3" width="0.13950001" height="3.3206" ry="0.044399999" fill="currentColor" id="rect211449"></rect>
  </g>
  <g transform="translate(26.537345,4.409433)" id="g211455">      
    <rect x="-0.069700003" y="-1.3206" width="0.13950001" height="3.3206" ry="0.044399999" fill="currentColor" id="rect211453"></rect>
  </g>
  <g transform="translate(26.467545,12.909433)" id="g211459">      
    <path transform="scale(0.004,-0.004)" d="m 312,64 c 0,24 -20,41 -41,41 -4,0 -8,-1 -12,-2 C 229,94 182,65 146,41 110,17 63,-13 43,-37 36,-45 33,-54 33,-64 c 0,-24 20,-41 41,-41 4,0 8,1 12,2 30,9 77,38 113,62 36,24 83,54 103,78 7,8 10,17 10,27 z m -53,73 c 48,0 86,-22 86,-74 0,-18 -4,-38 -10,-56 -12,-38 -30,-73 -63,-95 -53,-36 -113,-49 -186,-49 -48,0 -86,22 -86,74 0,18 4,38 10,56 12,38 31,73 64,95 53,36 112,49 185,49 z" fill="currentColor" id="path211457"></path>
  </g>
  <g transform="translate(26.467545,2.909433)" id="g211463">      
    <path transform="scale(0.004,-0.004)" d="m 215,137 c 57,0 111,-29 111,-92 0,-71 -54,-120 -101,-148 -35,-21 -74,-34 -114,-34 -57,0 -111,29 -111,92 0,71 54,120 101,148 35,21 74,34 114,34 z" fill="currentColor" id="path211461"></path>
  </g>
  <g transform="translate(21.746145,4.409433)" id="g211467">      
    <rect x="-0.069700003" y="-0.82059997" width="0.13950001" height="3.3206" ry="0.044399999" fill="currentColor" id="rect211465"></rect>
  </g>
  <g transform="translate(21.676445,3.409433)" id="g211471">      
    <path transform="scale(0.004,-0.004)" d="m 215,137 c 57,0 111,-29 111,-92 0,-71 -54,-120 -101,-148 -35,-21 -74,-34 -114,-34 -57,0 -111,29 -111,92 0,71 54,120 101,148 35,21 74,34 114,34 z" fill="currentColor" id="path211469"></path>
  </g>
  <g transform="translate(17.973645,3.909433)" id="g211475">      
    <path transform="scale(0.004,-0.004)" d="m 215,137 c 57,0 111,-29 111,-92 0,-71 -54,-120 -101,-148 -35,-21 -74,-34 -114,-34 -57,0 -111,29 -111,92 0,71 54,120 101,148 35,21 74,34 114,34 z" fill="currentColor" id="path211473"></path>
  </g>
  <g transform="translate(17.973645,13.909433)" id="g211479">      
    <path transform="scale(0.004,-0.004)" d="m 312,64 c 0,24 -20,41 -41,41 -4,0 -8,-1 -12,-2 C 229,94 182,65 146,41 110,17 63,-13 43,-37 36,-45 33,-54 33,-64 c 0,-24 20,-41 41,-41 4,0 8,1 12,2 30,9 77,38 113,62 36,24 83,54 103,78 7,8 10,17 10,27 z m -53,73 c 48,0 86,-22 86,-74 0,-18 -4,-38 -10,-56 -12,-38 -30,-73 -63,-95 -53,-36 -113,-49 -186,-49 -48,0 -86,22 -86,74 0,18 4,38 10,56 12,38 31,73 64,95 53,36 112,49 185,49 z" fill="currentColor" id="path211477"></path>
  </g>
  <g transform="translate(18.043345,4.409433)" id="g211483">      
    <rect x="-0.069700003" y="-0.3206" width="0.13950001" height="3.3206" ry="0.044399999" fill="currentColor" id="rect211481"></rect>
  </g>
  <g transform="translate(19.284445,13.409433)" id="g211487">      
    <rect x="-0.069700003" y="-3" width="0.13950001" height="3.247" ry="0.044399999" fill="currentColor" id="rect211485"></rect>
  </g>
  <g transform="translate(26.537345,13.409433)" id="g211491">      
    <rect x="-0.069700003" y="-0.24699999" width="0.13950001" height="3.247" ry="0.044399999" fill="currentColor" id="rect211489"></rect>
  </g>
</svg>